<mxfile host="65bd71144e">
    <diagram name="Page-1" id="10a91c8b-09ff-31b1-d368-03940ed4cc9e">
        <mxGraphModel dx="1098" dy="1122" grid="1" gridSize="10" guides="1" tooltips="1" connect="1" arrows="1" fold="1" page="1" pageScale="1" pageWidth="1100" pageHeight="850" background="none" math="0" shadow="0">
            <root>
                <mxCell id="0"/>
                <mxCell id="1" parent="0"/>
                <mxCell id="62893188c0fa7362-1" value="MyApp" style="whiteSpace=wrap;html=1;rounded=1;shadow=1;labelBackgroundColor=none;strokeWidth=1;fontFamily=Verdana;fontSize=12;align=center;" parent="1" vertex="1">
                    <mxGeometry x="500" y="40" width="120" height="60" as="geometry"/>
                </mxCell>
                <mxCell id="62893188c0fa7362-2" value="&lt;span&gt;ChatPage&lt;br&gt;[view]&lt;br&gt;&lt;/span&gt;" style="whiteSpace=wrap;html=1;rounded=1;shadow=1;labelBackgroundColor=none;strokeWidth=1;fontFamily=Verdana;fontSize=12;align=center;verticalAlign=top;" parent="1" vertex="1">
                    <mxGeometry x="500" y="150" width="120" height="180" as="geometry"/>
                </mxCell>
                <mxCell id="62893188c0fa7362-5" value="" style="rounded=0;html=1;labelBackgroundColor=none;startArrow=none;startFill=0;startSize=5;endArrow=none;endFill=0;endSize=5;jettySize=auto;orthogonalLoop=1;strokeWidth=1;fontFamily=Verdana;fontSize=12" parent="1" source="62893188c0fa7362-1" target="62893188c0fa7362-2" edge="1">
                    <mxGeometry x="-0.359" y="-11" relative="1" as="geometry">
                        <mxPoint as="offset"/>
                    </mxGeometry>
                </mxCell>
                <mxCell id="62893188c0fa7362-8" value="&lt;span&gt;ChatViewModel&lt;br&gt;[viewmodel]&lt;/span&gt;" style="whiteSpace=wrap;html=1;rounded=1;shadow=1;labelBackgroundColor=none;strokeWidth=1;fontFamily=Verdana;fontSize=12;align=center;" parent="1" vertex="1">
                    <mxGeometry x="500" y="390" width="120" height="60" as="geometry"/>
                </mxCell>
                <mxCell id="xEOuOQlPAfz4LEN3EPyu-16" value="&lt;span&gt;ChatRepository: ChatRepositoryImpl&lt;br&gt;[repository]&lt;/span&gt;" style="whiteSpace=wrap;html=1;rounded=1;shadow=1;labelBackgroundColor=none;strokeWidth=1;fontFamily=Verdana;fontSize=12;align=center;" parent="1" vertex="1">
                    <mxGeometry x="500" y="505" width="120" height="60" as="geometry"/>
                </mxCell>
                <mxCell id="xEOuOQlPAfz4LEN3EPyu-28" value="" style="endArrow=classic;html=1;rounded=0;labelBorderColor=none;comic=0;exitX=0.75;exitY=1;exitDx=0;exitDy=0;entryX=0.75;entryY=0;entryDx=0;entryDy=0;" parent="1" source="62893188c0fa7362-2" target="62893188c0fa7362-8" edge="1">
                    <mxGeometry relative="1" as="geometry">
                        <mxPoint x="600" y="350" as="sourcePoint"/>
                        <mxPoint x="700" y="350" as="targetPoint"/>
                        <Array as="points">
                            <mxPoint x="590" y="360"/>
                        </Array>
                    </mxGeometry>
                </mxCell>
                <mxCell id="xEOuOQlPAfz4LEN3EPyu-29" value="Get chats(without return value)/&lt;br&gt;Post chats[chats]" style="edgeLabel;resizable=0;html=1;align=center;verticalAlign=middle;" parent="xEOuOQlPAfz4LEN3EPyu-28" connectable="0" vertex="1">
                    <mxGeometry relative="1" as="geometry">
                        <mxPoint x="90" as="offset"/>
                    </mxGeometry>
                </mxCell>
                <mxCell id="xEOuOQlPAfz4LEN3EPyu-32" value="ChatDataSourceWs&lt;br&gt;[chatdatasource]" style="whiteSpace=wrap;html=1;rounded=1;shadow=1;labelBackgroundColor=none;strokeWidth=1;fontFamily=Verdana;fontSize=12;align=center;" parent="1" vertex="1">
                    <mxGeometry x="340" y="630" width="120" height="60" as="geometry"/>
                </mxCell>
                <mxCell id="xEOuOQlPAfz4LEN3EPyu-41" value="Server&lt;br&gt;/ws" style="whiteSpace=wrap;html=1;rounded=1;shadow=1;labelBackgroundColor=none;strokeWidth=1;fontFamily=Verdana;fontSize=12;align=center;" parent="1" vertex="1">
                    <mxGeometry x="340" y="750" width="120" height="60" as="geometry"/>
                </mxCell>
                <mxCell id="xEOuOQlPAfz4LEN3EPyu-49" value="&lt;font style=&quot;font-size: 10px&quot;&gt;&lt;br&gt;Viewmodel notifies the change but doesn't touch view by itself, and thus viewmodel doesn't depend on view&lt;/font&gt;" style="text;html=1;strokeColor=none;fillColor=none;align=left;verticalAlign=middle;whiteSpace=wrap;rounded=0;" parent="1" vertex="1">
                    <mxGeometry x="210" y="320" width="170" height="90" as="geometry"/>
                </mxCell>
                <mxCell id="xEOuOQlPAfz4LEN3EPyu-51" value="Data Binding" style="text;strokeColor=none;fillColor=none;html=1;fontSize=16;fontStyle=1;verticalAlign=middle;align=center;" parent="1" vertex="1">
                    <mxGeometry x="240" y="310" width="100" height="40" as="geometry"/>
                </mxCell>
                <mxCell id="xEOuOQlPAfz4LEN3EPyu-55" value="&lt;font style=&quot;font-size: 10px&quot;&gt;&amp;nbsp; Repository accesses different data sources(like remote resources and local cache) and provide them to the viewmodel, so the viewmodel doesn't have to care about the source and management of the data.&lt;br&gt;&lt;br&gt;&lt;div&gt;&lt;span&gt;&amp;nbsp; For example, repository decides where to get data from, remote or local, but doesn't know the exact method to access the resource. Repository calls DataSource, and DataSource actually access the method.&lt;/span&gt;&lt;/div&gt;&lt;div&gt;&lt;span&gt;&lt;br&gt;&lt;/span&gt;&lt;/div&gt;&lt;div&gt;&lt;span&gt;&amp;nbsp; By doing this, we can test the logic to decide where to get data from, and the actual access to servers or databases independently.&lt;/span&gt;&lt;/div&gt;&lt;/font&gt;" style="text;html=1;strokeColor=none;fillColor=none;align=left;verticalAlign=top;whiteSpace=wrap;rounded=0;" parent="1" vertex="1">
                    <mxGeometry x="40" y="570" width="240" height="190" as="geometry"/>
                </mxCell>
                <mxCell id="xEOuOQlPAfz4LEN3EPyu-56" value="Repository Pattern" style="text;strokeColor=none;fillColor=none;html=1;fontSize=16;fontStyle=1;verticalAlign=middle;align=center;" parent="1" vertex="1">
                    <mxGeometry x="110" y="530" width="100" height="40" as="geometry"/>
                </mxCell>
                <mxCell id="xEOuOQlPAfz4LEN3EPyu-57" value="ChatList" style="rounded=1;whiteSpace=wrap;html=1;fontSize=10;verticalAlign=top;" parent="1" vertex="1">
                    <mxGeometry x="510" y="200" width="100" height="80" as="geometry"/>
                </mxCell>
                <mxCell id="xEOuOQlPAfz4LEN3EPyu-58" value="ChatTextField" style="rounded=1;whiteSpace=wrap;html=1;fontSize=10;" parent="1" vertex="1">
                    <mxGeometry x="510" y="290" width="100" height="30" as="geometry"/>
                </mxCell>
                <mxCell id="xEOuOQlPAfz4LEN3EPyu-59" value="ChatBubble" style="rounded=1;whiteSpace=wrap;html=1;fontSize=10;" parent="1" vertex="1">
                    <mxGeometry x="520" y="230" width="80" height="30" as="geometry"/>
                </mxCell>
                <mxCell id="xEOuOQlPAfz4LEN3EPyu-60" value="MVVM+Repository" style="text;strokeColor=none;fillColor=none;html=1;fontSize=24;fontStyle=1;verticalAlign=middle;align=center;" parent="1" vertex="1">
                    <mxGeometry x="190" y="40" width="100" height="40" as="geometry"/>
                </mxCell>
                <mxCell id="3E0-rTflDkByDwFGI8Ox-1" value="By making the coupling between components loose, we can test the components independently, and maintenance with ease.&amp;nbsp;" style="text;html=1;strokeColor=none;fillColor=none;align=center;verticalAlign=top;whiteSpace=wrap;rounded=0;" parent="1" vertex="1">
                    <mxGeometry x="730" y="110" width="240" height="140" as="geometry"/>
                </mxCell>
                <mxCell id="3E0-rTflDkByDwFGI8Ox-2" value="Modularity" style="text;strokeColor=none;fillColor=none;html=1;fontSize=16;fontStyle=1;verticalAlign=middle;align=center;" parent="1" vertex="1">
                    <mxGeometry x="800" y="70" width="100" height="40" as="geometry"/>
                </mxCell>
                <mxCell id="NW1lpmxRgJRaP0ZMr7IM-4" value="" style="endArrow=classic;html=1;rounded=0;labelBorderColor=none;comic=0;entryX=0.75;entryY=0;entryDx=0;entryDy=0;exitX=0.75;exitY=1;exitDx=0;exitDy=0;" parent="1" source="62893188c0fa7362-8" edge="1">
                    <mxGeometry relative="1" as="geometry">
                        <mxPoint x="600" y="475" as="sourcePoint"/>
                        <mxPoint x="589.77" y="505" as="targetPoint"/>
                        <Array as="points">
                            <mxPoint x="589.77" y="475"/>
                        </Array>
                    </mxGeometry>
                </mxCell>
                <mxCell id="NW1lpmxRgJRaP0ZMr7IM-5" value="Get chats(without return value)/&lt;br&gt;Post chats[chats]" style="edgeLabel;resizable=0;html=1;align=center;verticalAlign=middle;" parent="NW1lpmxRgJRaP0ZMr7IM-4" connectable="0" vertex="1">
                    <mxGeometry relative="1" as="geometry">
                        <mxPoint x="95" y="3" as="offset"/>
                    </mxGeometry>
                </mxCell>
                <mxCell id="NW1lpmxRgJRaP0ZMr7IM-8" value="" style="endArrow=none;dashed=1;html=1;dashPattern=1 3;strokeWidth=2;rounded=0;entryX=1;entryY=0.5;entryDx=0;entryDy=0;" parent="1" target="62893188c0fa7362-8" edge="1">
                    <mxGeometry width="50" height="50" relative="1" as="geometry">
                        <mxPoint x="760" y="420" as="sourcePoint"/>
                        <mxPoint x="820" y="475" as="targetPoint"/>
                    </mxGeometry>
                </mxCell>
                <mxCell id="NW1lpmxRgJRaP0ZMr7IM-9" value="another repository&lt;br&gt;(e.g. UserRepository for icons)" style="text;html=1;align=center;verticalAlign=middle;resizable=0;points=[];autosize=1;strokeColor=none;fillColor=none;" parent="1" vertex="1">
                    <mxGeometry x="770" y="405" width="180" height="30" as="geometry"/>
                </mxCell>
                <mxCell id="2" value="" style="shape=flexArrow;endArrow=classic;startArrow=classic;html=1;entryX=0.5;entryY=1;entryDx=0;entryDy=0;exitX=0.5;exitY=0;exitDx=0;exitDy=0;fillColor=none;" edge="1" parent="1" source="62893188c0fa7362-8" target="62893188c0fa7362-2">
                    <mxGeometry width="100" height="100" relative="1" as="geometry">
                        <mxPoint x="360" y="420" as="sourcePoint"/>
                        <mxPoint x="460" y="320" as="targetPoint"/>
                    </mxGeometry>
                </mxCell>
                <mxCell id="3" value="Data Binding" style="edgeLabel;resizable=0;html=1;align=center;verticalAlign=middle;" connectable="0" vertex="1" parent="1">
                    <mxGeometry x="499.9952997042109" y="359.9983316017286" as="geometry"/>
                </mxCell>
                <mxCell id="7" value="Data Binding" style="edgeLabel;resizable=0;html=1;align=center;verticalAlign=middle;" connectable="0" vertex="1" parent="1">
                    <mxGeometry x="499.9952997042109" y="479.9983316017286" as="geometry"/>
                </mxCell>
                <mxCell id="6" value="" style="shape=flexArrow;endArrow=classic;startArrow=classic;html=1;entryX=0.5;entryY=1;entryDx=0;entryDy=0;exitX=0.5;exitY=0;exitDx=0;exitDy=0;fillColor=none;" edge="1" parent="1" source="xEOuOQlPAfz4LEN3EPyu-16">
                    <mxGeometry width="100" height="100" relative="1" as="geometry">
                        <mxPoint x="560" y="510" as="sourcePoint"/>
                        <mxPoint x="560" y="450" as="targetPoint"/>
                    </mxGeometry>
                </mxCell>
                <mxCell id="8" value="Data Binding" style="edgeLabel;resizable=0;html=1;align=center;verticalAlign=middle;" connectable="0" vertex="1" parent="1">
                    <mxGeometry x="459.9952997042109" y="579.9983316017285" as="geometry"/>
                </mxCell>
                <mxCell id="9" value="" style="shape=flexArrow;endArrow=classic;startArrow=classic;html=1;entryX=0.25;entryY=1;entryDx=0;entryDy=0;exitX=0.5;exitY=0;exitDx=0;exitDy=0;fillColor=none;edgeStyle=orthogonalEdgeStyle;" edge="1" parent="1" source="xEOuOQlPAfz4LEN3EPyu-32" target="xEOuOQlPAfz4LEN3EPyu-16">
                    <mxGeometry width="100" height="100" relative="1" as="geometry">
                        <mxPoint x="559.86" y="620" as="sourcePoint"/>
                        <mxPoint x="559.86" y="565" as="targetPoint"/>
                    </mxGeometry>
                </mxCell>
                <mxCell id="12" value="" style="shape=flexArrow;endArrow=classic;startArrow=classic;html=1;gradientColor=none;exitX=0.5;exitY=0;exitDx=0;exitDy=0;entryX=0.5;entryY=1;entryDx=0;entryDy=0;" edge="1" parent="1" source="xEOuOQlPAfz4LEN3EPyu-41" target="xEOuOQlPAfz4LEN3EPyu-32">
                    <mxGeometry width="100" height="100" relative="1" as="geometry">
                        <mxPoint x="490" y="760" as="sourcePoint"/>
                        <mxPoint x="590" y="660" as="targetPoint"/>
                    </mxGeometry>
                </mxCell>
                <mxCell id="13" value="WebSocket" style="text;html=1;align=center;verticalAlign=middle;resizable=0;points=[];autosize=1;strokeColor=none;" vertex="1" parent="1">
                    <mxGeometry x="300" y="710" width="80" height="20" as="geometry"/>
                </mxCell>
                <mxCell id="20" style="edgeStyle=orthogonalEdgeStyle;html=1;exitX=0.25;exitY=1;exitDx=0;exitDy=0;entryX=0.25;entryY=0;entryDx=0;entryDy=0;gradientColor=none;" edge="1" parent="1" source="14" target="15">
                    <mxGeometry relative="1" as="geometry"/>
                </mxCell>
                <mxCell id="14" value="ChatDataSourceWs&lt;br&gt;[chatdatasource]" style="whiteSpace=wrap;html=1;rounded=1;shadow=1;labelBackgroundColor=none;strokeWidth=1;fontFamily=Verdana;fontSize=12;align=center;" vertex="1" parent="1">
                    <mxGeometry x="660" y="630" width="120" height="60" as="geometry"/>
                </mxCell>
                <mxCell id="21" style="edgeStyle=orthogonalEdgeStyle;html=1;exitX=0.75;exitY=0;exitDx=0;exitDy=0;entryX=0.75;entryY=1;entryDx=0;entryDy=0;gradientColor=none;" edge="1" parent="1" source="15" target="14">
                    <mxGeometry relative="1" as="geometry"/>
                </mxCell>
                <mxCell id="15" value="Server&lt;br&gt;/posts" style="whiteSpace=wrap;html=1;rounded=1;shadow=1;labelBackgroundColor=none;strokeWidth=1;fontFamily=Verdana;fontSize=12;align=center;" vertex="1" parent="1">
                    <mxGeometry x="660" y="750" width="120" height="60" as="geometry"/>
                </mxCell>
                <mxCell id="22" value="HttpRequest" style="text;html=1;align=center;verticalAlign=middle;resizable=0;points=[];autosize=1;strokeColor=none;" vertex="1" parent="1">
                    <mxGeometry x="600" y="710" width="80" height="20" as="geometry"/>
                </mxCell>
                <mxCell id="23" value="HttpRequest" style="text;html=1;align=center;verticalAlign=middle;resizable=0;points=[];autosize=1;strokeColor=none;" vertex="1" parent="1">
                    <mxGeometry x="760" y="710" width="80" height="20" as="geometry"/>
                </mxCell>
                <mxCell id="24" value="Get Chats[chats]" style="text;html=1;align=center;verticalAlign=middle;resizable=0;points=[];autosize=1;strokeColor=none;" vertex="1" parent="1">
                    <mxGeometry x="610" y="570" width="110" height="20" as="geometry"/>
                </mxCell>
                <mxCell id="25" value="" style="endArrow=classic;startArrow=classic;html=1;gradientColor=none;entryX=0.5;entryY=0;entryDx=0;entryDy=0;exitX=0.75;exitY=1;exitDx=0;exitDy=0;edgeStyle=orthogonalEdgeStyle;" edge="1" parent="1" source="xEOuOQlPAfz4LEN3EPyu-16" target="14">
                    <mxGeometry width="50" height="50" relative="1" as="geometry">
                        <mxPoint x="530" y="360" as="sourcePoint"/>
                        <mxPoint x="580" y="310" as="targetPoint"/>
                    </mxGeometry>
                </mxCell>
            </root>
        </mxGraphModel>
    </diagram>
</mxfile>